<?xml version="1.0" encoding="UTF-8" standalone="no"?>
<svg
   xmlns:dc="http://purl.org/dc/elements/1.1/"
   xmlns:cc="http://creativecommons.org/ns#"
   xmlns:rdf="http://www.w3.org/1999/02/22-rdf-syntax-ns#"
   xmlns:svg="http://www.w3.org/2000/svg"
   xmlns="http://www.w3.org/2000/svg"
   xmlns:sodipodi="http://sodipodi.sourceforge.net/DTD/sodipodi-0.dtd"
   xmlns:inkscape="http://www.inkscape.org/namespaces/inkscape"
   width="22"
   height="22"
   viewBox="0 0 22 22"
   version="1.1"
   id="svg979"
   sodipodi:docname="cookies.svg"
   inkscape:version="0.92.3 (d244b95, 2018-08-02)">
  <metadata
     id="metadata985">
    <rdf:RDF>
      <cc:Work
         rdf:about="">
        <dc:format>image/svg+xml</dc:format>
        <dc:type
           rdf:resource="http://purl.org/dc/dcmitype/StillImage" />
        <dc:title></dc:title>
      </cc:Work>
    </rdf:RDF>
  </metadata>
  <defs
     id="defs983" />
  <sodipodi:namedview
     pagecolor="#ffffff"
     bordercolor="#666666"
     borderopacity="1"
     objecttolerance="10"
     gridtolerance="10"
     guidetolerance="10"
     inkscape:pageopacity="0"
     inkscape:pageshadow="2"
     inkscape:window-width="1920"
     inkscape:window-height="1016"
     id="namedview981"
     showgrid="false"
     inkscape:pagecheckerboard="true"
     inkscape:zoom="11.8"
     inkscape:cx="-24.745763"
     inkscape:cy="6"
     inkscape:window-x="0"
     inkscape:window-y="27"
     inkscape:window-maximized="1"
     inkscape:current-layer="svg979" />
  <path
     d="M 1.4322789,0.4576271 H 21.432279 V 20.457627 H 1.4322789 Z"
     id="path975"
     inkscape:connector-curvature="0"
     style="fill:none" />
  <g
     id="g819"
     transform="translate(-0.2119401,-1.3644061)">
    <path
       sodipodi:nodetypes="csccccccccssccccccccsccccccccssccccccccsssss"
       inkscape:connector-curvature="0"
       id="path977"
       d="m 19.619831,13.530953 c 0.04128,-0.344015 0.0688,-0.70179 0.0688,-1.073326 0,-0.371536 -0.02752,-0.729312 -0.08256,-1.073327 l 2.32554,-1.8163974 C 22.13802,9.4027755 22.193062,9.1000424 22.069217,8.8661123 L 19.867522,5.0544281 C 19.729916,4.8067374 19.440943,4.7241738 19.193253,4.8067374 L 16.454895,5.9075848 C 15.87695,5.4672459 15.271484,5.1094704 14.597215,4.8342586 L 14.184397,1.9170129 C 14.143115,1.641801 13.909185,1.4491527 13.633973,1.4491527 H 9.2305836 c -0.2752118,0 -0.4953813,0.1926483 -0.5366631,0.4678602 L 8.2811027,4.8342586 C 7.6068336,5.1094704 6.987607,5.4810064 6.4234226,5.9075848 L 3.6850646,4.8067374 c -0.2476906,-0.096324 -0.5366631,0 -0.674269,0.2476907 L 0.80910069,8.8661123 C 0.67149479,9.113803 0.72653709,9.4027755 0.94670659,9.5679026 L 3.2722469,11.384301 c -0.055042,0.344015 -0.096324,0.715551 -0.096324,1.073327 0,0.357775 0.027521,0.729311 0.082564,1.073326 l -2.32554031,1.816398 c -0.2064089,0.165127 -0.2614512,0.46786 -0.1376059,0.701789 l 2.20169491,3.811686 c 0.1376059,0.247689 0.4265784,0.330254 0.674269,0.247689 l 2.7383581,-1.100847 c 0.5779449,0.440339 1.183411,0.798114 1.85768,1.073326 l 0.4128178,2.917246 c 0.055042,0.275212 0.2752119,0.46786 0.5504237,0.46786 h 4.4033888 c 0.275212,0 0.509142,-0.192647 0.536663,-0.46786 l 0.412818,-2.917246 c 0.674269,-0.275212 1.293496,-0.646747 1.85768,-1.073326 l 2.738358,1.100847 c 0.247691,0.09632 0.536663,0 0.674269,-0.247689 l 2.201695,-3.811686 c 0.137606,-0.247689 0.08256,-0.536662 -0.137606,-0.701789 z m -8.134676,5.164069 c -2.2704981,0 -6.2265335,-3.733667 -6.2265335,-6.004164 0,-2.270498 4.2522866,-6.141788 6.5227835,-6.141788 2.270498,0 5.45296,3.732949 5.45296,6.003447 0,2.270497 -3.478712,6.142505 -5.74921,6.142505 z"
       style="fill:#ffffff;fill-opacity:1;stroke-width:1.37605929" />
    <path
       inkscape:connector-curvature="0"
       id="path5233"
       d="m 11.432278,5.3298404 a 7.0622553,7.1288801 0 0 0 -7.0632941,7.1277876 7.0622553,7.1288801 0 0 0 7.0632941,7.127786 7.0622553,7.1288801 0 0 0 7.063296,-7.127786 7.0622553,7.1288801 0 0 0 -7.063296,-7.1277876 z m 0.184259,2.3308862 c 1.129299,0 2.039958,0.3135819 2.733191,0.9397267 0.704412,0.6261448 1.094853,1.4941997 1.173121,2.6011347 H 13.277948 C 13.14378,10.608987 12.945484,10.188465 12.688317,9.9424792 12.442332,9.6853127 12.078903,9.5555339 11.598113,9.5555339 c -1.274653,0 -1.910161,0.9905891 -1.910161,2.9696541 0,0.883312 0.168208,1.575914 0.503643,2.079067 0.346616,0.503152 0.813916,0.755465 1.406518,0.755465 0.458427,0 0.817682,-0.122533 1.07485,-0.36852 0.257165,-0.257167 0.459631,-0.67769 0.604985,-1.25911 h 2.244901 c -0.111808,1.084573 -0.52509,1.945383 -1.240684,2.582711 -0.704414,0.626144 -1.603653,0.939725 -2.699408,0.939725 -1.341738,0 -2.3863497,-0.413279 -3.1354877,-1.240684 -0.7379577,-0.827406 -1.1086316,-1.990378 -1.1086316,-3.488654 0,-1.542999 0.3748484,-2.7402276 1.1239856,-3.5899968 0.749139,-0.8497678 1.8009937,-1.2744646 3.1539137,-1.2744646 z"
       style="opacity:1;fill:#ffffff;fill-opacity:1;stroke:none;stroke-width:1.28957546;stroke-linecap:round;stroke-miterlimit:4;stroke-dasharray:none;stroke-opacity:1" />
  </g>
</svg>
